<svg xmlns="http://www.w3.org/2000/svg" viewBox="0 0 456.75 401.99"><defs><style>.cls-1{fill:#6FE4BD;}</style></defs><g id="Layer_2" data-name="Layer 2"><g id="Layer_1-2" data-name="Layer 1"><path class="cls-1" d="M456.75,138.44V28.91A24.29,24.29,0,0,0,455,20.85a53.42,53.42,0,0,0-4.62-9.45,34.84,34.84,0,0,0-6.62-8.06A11.61,11.61,0,0,0,436,0H206.07L206,71.27,168.87,171.8,104.89,0H0Q4.6,10,8.36,20A62.93,62.93,0,0,1,12.1,42.26V402h99.13V228l56.48,141.78H170l35.63-90.36L205.46,402H436a11.64,11.64,0,0,0,7.78-3.33,35.11,35.11,0,0,0,6.62-8.07,53.42,53.42,0,0,0,4.62-9.45,24.29,24.29,0,0,0,1.73-8.06V263.55a60.66,60.66,0,0,0-9.8-32.81q-9.79-15.57-19.6-29.47l19.6-30A60.64,60.64,0,0,0,456.75,138.44ZM357.62,299.69q-.58,5.55-2.31,6.11H325.05V237.36A162,162,0,0,1,338.6,251a112.74,112.74,0,0,1,13.83,19.46,42.21,42.21,0,0,1,5.76,20.85Q358.19,294.13,357.62,299.69Zm-4.9-167.92A106.18,106.18,0,0,1,339.17,151a161.53,161.53,0,0,1-14.12,14.18V96.19h30.26q1.72.56,2.31,6.11t.57,8.34A43.37,43.37,0,0,1,352.72,131.77Z"/></g></g></svg>