<?xml version="1.0" standalone="no"?>
<!DOCTYPE svg PUBLIC "-//W3C//DTD SVG 20010904//EN" "http://www.w3.org/TR/2001/REC-SVG-20010904/DTD/svg10.dtd">
<svg
  version="1.0"
  xmlns="http://www.w3.org/2000/svg"
  width="512.000000pt"
  height="512.000000pt"
  viewBox="0 0 512.000000 512.000000"
  preserveAspectRatio="xMidYMid meet"
>
  <g
    transform="translate(0.000000,512.000000) scale(0.100000,-0.100000)"
    fill="#31ddac"
    stroke="none"
  >
    <path
      d="M2370 4464 c-535 -85 -953 -501 -1067 -1061 -16 -80 -18 -156 -18
-843 0 -687 2 -763 18 -843 110 -541 499 -942 1021 -1054 113 -25 360 -24 476
0 518 111 907 514 1017 1054 16 80 18 156 18 843 0 687 -2 763 -18 843 -143
704 -777 1169 -1447 1061z m420 -334 c167 -43 304 -122 431 -249 129 -129 215
-281 267 -469 l27 -97 0 -755 0 -755 -27 -97 c-53 -191 -139 -341 -272 -473
-378 -375 -980 -363 -1341 27 -113 122 -196 273 -243 446 l-27 97 0 755 0 755
27 97 c111 403 410 679 803 741 73 12 272 -1 355 -23z"
    />
    <path
      d="M2480 3658 c-18 -13 -43 -36 -54 -51 -20 -28 -21 -39 -21 -407 0
-368 1 -379 21 -407 35 -48 82 -73 134 -73 52 0 99 25 134 73 20 28 21 39 21
407 0 368 -1 379 -21 407 -35 48 -82 73 -134 73 -32 0 -57 -7 -80 -22z"
    />
  </g>
</svg>
