<svg width="25" height="37" viewBox="0 0 25 37" fill="none" xmlns="http://www.w3.org/2000/svg">
<path d="M6.25 37C9.7 37 12.5 34.2373 12.5 30.8333V24.6666H6.25C2.8 24.6666 0 27.4293 0 30.8333C0 34.2373 2.8 37 6.25 37Z" fill="#0ACF83"/>
<path d="M0 18.5C0 15.096 2.8 12.3334 6.25 12.3334H12.5V24.6667H6.25C2.8 24.6667 0 21.904 0 18.5Z" fill="#A259FF"/>
<path d="M0 6.16667C0 2.76267 2.8 0 6.25 0H12.5V12.3333H6.25C2.8 12.3333 0 9.57067 0 6.16667Z" fill="#F24E1E"/>
<path d="M12.5 0H18.75C22.2 0 25 2.76267 25 6.16667C25 9.57067 22.2 12.3333 18.75 12.3333H12.5V0Z" fill="#FF7262"/>
<path d="M25 18.5C25 21.904 22.2 24.6667 18.75 24.6667C15.3 24.6667 12.5 21.904 12.5 18.5C12.5 15.096 15.3 12.3334 18.75 12.3334C22.2 12.3334 25 15.096 25 18.5Z" fill="#1ABCFE"/>
</svg>
