<svg width="31" height="31" viewBox="0 0 31 31" fill="none" xmlns="http://www.w3.org/2000/svg">
<path d="M1.46391 1.84672H29.5361V29.1533H1.46391V1.84672ZM0.1875 30.4297H30.8125V0.570312H0.1875V30.4297ZM20.8342 12.8203C19.8258 12.8203 19.4812 13.3311 19.4812 13.7522C19.4812 14.2116 19.7109 14.5309 21.0639 15.232C23.0677 16.2022 23.6889 17.133 23.6889 18.4991C23.6889 20.5411 22.1325 21.6381 20.027 21.6381C19.1234 21.6716 18.2253 21.4839 17.4108 21.0912C17.3211 21.053 17.3091 20.9895 17.3091 20.8867V19.0087C17.3091 18.8808 17.3725 18.8425 17.4622 18.907C18.2271 19.3989 19.1176 19.6602 20.027 19.6595C21.0355 19.6595 21.4566 19.2384 21.4566 18.6642C21.4566 18.2048 21.1634 17.7969 19.8739 17.133C18.0616 16.2656 17.3091 15.383 17.3091 13.9173C17.3091 12.2713 18.5975 10.9063 20.8309 10.9063C21.6084 10.8729 22.3847 10.9944 23.1147 11.2639C23.1567 11.2912 23.1907 11.3292 23.2132 11.374C23.2357 11.4188 23.2459 11.4687 23.2427 11.5188V13.2688C23.2427 13.3705 23.1792 13.435 23.0512 13.3967C22.3766 13.0083 21.6093 12.8099 20.8309 12.8225L20.8342 12.8203ZM9.85953 14.3384C10.1527 14.3636 10.3823 14.3636 10.8931 14.3636C12.3861 14.3636 13.7894 13.8408 13.7894 11.8119C13.7894 10.1909 12.7809 9.375 11.0845 9.375C10.5738 9.375 10.0892 9.40016 9.85953 9.41328V14.3384ZM7.58781 7.55719C7.58781 7.4675 7.76609 7.40406 7.86891 7.40406C8.96572 7.35924 10.0634 7.33809 11.1611 7.34063C14.6961 7.34063 16.0742 9.27984 16.0742 11.7561C16.0742 14.9969 13.7259 16.3881 10.8428 16.3881C10.3583 16.3881 10.192 16.363 9.8475 16.363V21.263C9.8475 21.3647 9.80922 21.4161 9.69438 21.4161H7.74203C7.64031 21.4161 7.58891 21.3778 7.58891 21.263V7.56266L7.58781 7.55719Z" fill="#31C5F0"/>
</svg>
